<?xml version="1.0" encoding="iso-8859-1"?>
<!-- Generator: Adobe Illustrator 17.1.0, SVG Export Plug-In . SVG Version: 6.00 Build 0)  -->
<!DOCTYPE svg PUBLIC "-//W3C//DTD SVG 1.1//EN" "http://www.w3.org/Graphics/SVG/1.1/DTD/svg11.dtd">
<svg version="1.1" id="Capa_1" xmlns="http://www.w3.org/2000/svg" xmlns:xlink="http://www.w3.org/1999/xlink" x="0px" y="0px"
	 viewBox="0 0 207.727 207.727" style="enable-background:new 0 0 207.727 207.727;" xml:space="preserve">
<path d="M122.174,158.308l-43.302,47.777c-0.948,1.045-2.294,1.642-3.705,1.642s-2.757-0.597-3.705-1.642l-43.301-47.777
	c-1.328-1.466-1.667-3.576-0.866-5.384c0.802-1.808,2.594-2.974,4.571-2.974h19.968V74.243c0-2.761,2.238-5,5-5h36.667
	c2.762,0,5,2.239,5,5v75.707h19.968c1.978,0,3.77,1.166,4.571,2.974C123.841,154.731,123.502,156.842,122.174,158.308z
	 M155.893,133.485V57.777h19.968c1.978,0,3.77-1.166,4.571-2.974c0.801-1.808,0.462-3.918-0.866-5.384L136.265,1.642
	C135.317,0.597,133.971,0,132.56,0s-2.757,0.597-3.705,1.642L85.553,49.419c-1.328,1.465-1.667,3.576-0.866,5.384
	c0.802,1.808,2.594,2.974,4.571,2.974h19.968v75.708c0,2.761,2.238,5,5,5h36.667C153.655,138.485,155.893,136.246,155.893,133.485z
	 M119.226,52.777c0-2.761-2.238-5-5-5h-13.688l32.022-35.332l32.021,35.332h-13.688c-2.762,0-5,2.239-5,5v75.708h-26.667V52.777z"/>
<g>
</g>
<g>
</g>
<g>
</g>
<g>
</g>
<g>
</g>
<g>
</g>
<g>
</g>
<g>
</g>
<g>
</g>
<g>
</g>
<g>
</g>
<g>
</g>
<g>
</g>
<g>
</g>
<g>
</g>
</svg>
